<?xml version="1.0" standalone="no"?>
<!DOCTYPE svg PUBLIC "-//W3C//DTD SVG 20010904//EN"
 "http://www.w3.org/TR/2001/REC-SVG-20010904/DTD/svg10.dtd">
<svg version="1.0" xmlns="http://www.w3.org/2000/svg"
 width="1280.000000pt" height="882.000000pt" viewBox="0 0 1280.000000 882.000000"
 preserveAspectRatio="xMidYMid meet">
<g transform="translate(0.000000,882.000000) scale(0.100000,-0.100000)"
fill="#000000" stroke="none">
<path d="M185 8790 c-10 -11 -16 -22 -14 -24 2 -2 137 -41 299 -86 588 -163
1027 -295 1256 -376 397 -141 456 -152 1054 -194 291 -21 514 -56 669 -107 42
-13 144 -54 226 -90 223 -98 380 -155 585 -212 401 -113 594 -185 900 -337
233 -117 475 -258 497 -291 29 -43 -9 -108 -87 -149 -28 -15 -56 -19 -135 -18
l-100 1 50 -13 c70 -19 179 -18 221 2 63 30 103 113 80 167 -36 88 -105 135
-473 325 -457 235 -591 290 -818 332 -301 56 -342 70 -587 194 -125 64 -261
127 -301 140 -114 37 -239 54 -547 76 -282 19 -473 41 -705 80 -272 47 -394
81 -930 263 -154 53 -413 132 -575 177 -162 44 -350 98 -417 120 -67 22 -123
40 -126 40 -2 0 -12 -9 -22 -20z"/>
<path d="M142 7845 c2 -3 85 -23 184 -45 225 -50 342 -87 372 -117 13 -13 28
-20 34 -17 6 4 27 7 46 6 45 -2 40 2 -42 33 -167 63 -625 171 -594 140z"/>
<path d="M110 7724 c0 -13 86 -42 252 -85 110 -28 220 -63 262 -83 39 -19 72
-34 73 -33 1 1 4 14 8 30 6 22 4 27 -12 27 -11 0 -45 9 -76 19 -31 11 -134 38
-229 61 -95 23 -197 48 -225 55 -29 7 -53 11 -53 9z"/>
<path d="M11965 7585 c-110 -11 -302 -38 -685 -95 -36 -5 -150 -21 -255 -35
-471 -64 -677 -106 -817 -171 -54 -24 -103 -44 -109 -44 -7 0 -10 -2 -7 -5 3
-3 76 10 162 30 87 19 275 55 419 80 144 24 366 64 492 89 598 117 666 126
995 136 146 4 267 9 270 10 3 1 -4 5 -15 10 -30 13 -301 10 -450 -5z"/>
<path d="M2746 7555 c15 -77 54 -131 189 -265 75 -74 157 -162 182 -195 59
-77 139 -246 192 -403 56 -165 73 -249 75 -362 1 -106 -10 -136 -65 -169 l-29
-18 123 -7 c172 -9 256 15 331 93 25 26 28 35 23 68 -4 21 -32 88 -63 149 -62
122 -78 190 -50 213 25 21 163 -28 288 -102 103 -62 416 -286 748 -535 112
-84 212 -151 278 -184 92 -47 111 -53 178 -56 l75 -4 42 44 c39 40 67 100 67
142 0 25 -245 266 -410 402 -80 66 -260 209 -401 317 -371 286 -664 536 -656
561 2 6 19 19 38 29 50 27 124 17 245 -32 105 -43 195 -60 305 -61 94 0 201
-31 374 -106 177 -78 293 -120 355 -128 l45 -6 -40 17 c-22 9 -130 53 -240 99
-238 98 -396 148 -525 164 -52 6 -152 25 -222 41 -159 37 -278 52 -343 44 -61
-7 -155 -35 -155 -45 0 -4 17 -10 39 -13 31 -4 64 -26 170 -115 72 -61 227
-184 344 -273 563 -432 650 -503 826 -674 174 -168 229 -258 201 -326 -16 -38
-57 -59 -116 -59 -75 0 -173 55 -386 217 -568 430 -698 519 -913 628 -148 75
-283 121 -418 141 -56 8 -107 20 -113 27 -6 7 -19 35 -29 62 -41 116 -133 252
-247 367 -89 89 -89 88 -15 166 23 23 36 42 30 42 -7 0 -15 -4 -18 -10 -3 -5
-26 -22 -51 -36 -43 -25 -46 -26 -64 -9 -11 10 -20 29 -20 42 l0 24 -23 -27
c-31 -36 -52 -24 -97 55 -19 34 -41 69 -48 79 -11 15 -11 13 -6 -13z m758
-899 c63 -64 133 -194 171 -319 l28 -88 -23 -24 c-48 -51 -120 -67 -191 -44
-52 18 -69 37 -62 70 3 16 -2 92 -12 170 -16 131 -17 252 -1 278 14 22 39 10
90 -43z"/>
<path d="M1385 7300 c90 -95 206 -161 413 -235 73 -26 135 -51 138 -56 23 -38
-222 -15 -577 54 -156 31 -301 59 -322 62 -29 5 -40 12 -48 33 -6 15 -13 22
-17 16 -11 -17 -100 -16 -204 1 -91 15 -248 21 -248 9 0 -3 5 -14 10 -24 9
-16 21 -19 88 -18 133 2 191 -27 403 -198 79 -63 167 -131 196 -150 87 -58
237 -127 523 -242 433 -174 497 -206 670 -342 158 -124 173 -129 405 -150 66
-6 145 -16 176 -22 55 -11 56 -11 96 21 22 18 67 43 99 56 l59 24 -30 11 c-92
33 -181 111 -279 243 -87 118 -125 189 -142 269 -9 40 -28 93 -41 117 -32 56
-137 166 -281 294 -63 56 -131 124 -152 150 -36 45 -39 46 -46 25 -3 -13 -12
-26 -18 -30 -7 -5 10 -29 47 -66 47 -47 55 -61 44 -70 -25 -21 -159 -35 -282
-29 -233 11 -460 97 -666 252 l-64 48 50 -53z m1076 -699 c54 -28 140 -110
181 -173 16 -27 32 -48 35 -48 3 0 16 9 30 20 31 24 83 26 129 4 74 -35 263
-236 251 -267 -9 -24 -78 -50 -133 -49 -33 0 -91 14 -156 36 -58 20 -134 40
-170 44 -52 6 -74 15 -109 42 -106 81 -120 106 -74 136 30 20 31 37 4 89 -39
75 -106 125 -166 125 -43 0 -57 13 -36 33 48 43 140 46 214 8z m284 -37 c19
-46 19 -60 -1 -68 -26 -10 -44 13 -44 54 0 61 22 68 45 14z m-375 -64 c30 -21
70 -86 70 -113 0 -8 -16 -27 -36 -42 l-36 -27 -27 26 c-39 38 -96 148 -88 170
10 25 74 17 117 -14z"/>
<path d="M4532 7310 c0 -19 2 -27 5 -17 2 9 2 25 0 35 -3 9 -5 1 -5 -18z"/>
<path d="M5053 7160 c-30 -51 -29 -70 1 -70 16 0 25 7 29 23 2 12 7 29 11 37
4 9 1 23 -6 33 -12 15 -15 13 -35 -23z"/>
<path d="M10420 7166 c0 -19 23 -26 57 -17 l28 8 -28 12 c-38 15 -57 14 -57
-3z"/>
<path d="M9295 7016 c-322 -89 -524 -157 -677 -226 l-48 -21 20 -39 c25 -49
30 -50 23 -7 -3 21 0 37 9 44 12 10 431 150 771 258 81 26 147 48 147 51 0 7
-8 5 -245 -60z"/>
<path d="M9658 6984 c-38 -20 -36 -38 2 -19 17 9 30 20 30 25 0 12 1 12 -32
-6z"/>
<path d="M9423 6952 c-29 -4 -29 -6 2 -37 30 -30 45 -32 45 -7 0 28 -22 48
-47 44z"/>
<path d="M9850 6845 c-30 -8 -228 -53 -440 -100 -635 -142 -731 -165 -821
-196 -109 -37 -133 -37 -170 0 -34 35 -39 71 -9 71 16 0 20 7 20 35 0 40 -2
41 -41 18 -38 -23 -44 -48 -29 -129 7 -37 9 -69 4 -74 -5 -5 -79 -30 -164 -55
-292 -88 -380 -152 -380 -274 0 -22 7 -61 15 -86 17 -48 14 -65 -11 -65 -8 0
-41 -13 -74 -30 -50 -25 -61 -35 -70 -67 -19 -69 -22 -138 -10 -198 31 -151
73 -166 352 -124 76 11 151 19 166 17 26 -3 27 -3 27 -88 0 -99 20 -152 81
-219 60 -68 69 -70 234 -60 234 14 607 68 1029 149 57 11 107 17 111 15 5 -3
-1 -29 -12 -57 -29 -76 -27 -194 4 -257 21 -41 28 -47 73 -59 75 -20 258 -26
371 -13 86 10 270 44 589 108 74 15 142 18 375 19 233 0 299 3 364 18 257 57
425 170 627 419 l83 102 -105 -106 c-211 -214 -397 -320 -636 -363 -108 -20
-160 -25 -378 -36 -246 -13 -314 -22 -585 -75 -299 -58 -364 -67 -500 -63 -94
2 -115 6 -115 18 0 10 31 24 103 45 l104 29 -6 48 c-4 27 -16 78 -27 114 l-21
67 -51 -6 c-29 -3 -83 -19 -122 -35 l-70 -29 2 -106 c2 -84 -1 -107 -11 -107
-20 0 -46 73 -46 126 0 58 18 92 75 142 88 77 256 130 640 202 362 68 495 104
607 162 55 29 102 68 81 68 -6 0 -35 -11 -64 -24 -228 -100 -635 -194 -1409
-326 -256 -43 -486 -83 -510 -89 -25 -5 -115 -22 -200 -37 -198 -34 -434 -40
-516 -11 -83 29 -124 84 -124 166 0 84 23 112 36 44 10 -58 21 -71 21 -26 0
79 56 133 136 133 37 0 49 -5 66 -26 l21 -27 -6 46 c-6 42 -4 47 17 56 13 5
128 28 254 51 471 85 1253 246 1269 261 30 27 -244 -9 -519 -69 -126 -28 -284
-60 -350 -72 -66 -12 -256 -48 -423 -81 -508 -100 -719 -129 -928 -129 -113 0
-124 6 -150 77 -25 72 -13 211 19 201 6 -3 14 -22 18 -44 l5 -39 12 41 c20 70
89 114 178 114 40 0 45 2 34 15 -7 9 -11 18 -8 21 3 3 57 16 119 29 63 13 227
53 364 89 302 80 520 123 540 106 10 -8 15 -8 22 3 11 20 123 54 450 136 287
73 509 138 500 148 -10 9 -192 -33 -750 -173 -295 -74 -608 -150 -695 -169
-293 -63 -617 -114 -633 -98 -4 4 -13 36 -20 71 -12 55 -11 64 4 79 15 15 18
13 36 -30 23 -54 37 -62 89 -52 l37 7 -47 14 c-63 19 -74 40 -43 86 82 120
395 229 1165 403 386 87 560 132 715 182 141 45 158 58 35 28z m124 -1547 c23
-36 49 -149 37 -161 -13 -13 -180 -67 -208 -67 -30 0 -52 36 -59 96 -9 77 2
93 87 125 93 34 124 36 143 7z"/>
<path d="M3050 6815 c-14 -8 -20 -14 -14 -15 5 0 19 7 30 15 24 18 16 19 -16
0z"/>
<path d="M2958 6759 c-10 -5 -18 -14 -18 -19 0 -14 28 -1 34 16 6 16 6 16 -16
3z"/>
<path d="M8609 6661 c-9 -9 -24 -22 -35 -29 -17 -11 -15 -12 16 -6 43 7 55 18
44 36 -8 12 -11 12 -25 -1z"/>
<path d="M4235 6624 c-9 -14 -14 -28 -12 -31 3 -3 13 9 22 26 19 38 14 41 -10
5z"/>
<path d="M5545 6589 c-4 -6 -4 -13 -1 -17 4 -3 363 -55 798 -114 436 -59 796
-112 801 -117 5 -5 2 -24 -7 -45 -10 -24 -11 -36 -4 -36 32 0 306 65 302 71
-5 9 -267 149 -278 149 -3 0 -3 -18 0 -40 5 -30 3 -41 -9 -45 -8 -4 -362 41
-787 99 -425 58 -780 106 -791 106 -10 0 -21 -5 -24 -11z"/>
<path d="M9026 6493 c9 -37 32 -93 38 -93 3 0 3 7 -1 16 -4 10 0 20 10 26 18
9 14 32 -11 61 -24 27 -44 22 -36 -10z"/>
<path d="M3220 6466 l-55 -12 42 -7 c26 -4 56 -19 78 -38 19 -17 35 -28 35
-24 0 26 -25 95 -34 94 -6 -1 -36 -7 -66 -13z"/>
<path d="M3090 6436 c-44 -16 -47 -33 -17 -99 45 -98 112 -157 180 -157 68 0
113 70 89 137 -10 28 -10 28 -11 -9 -1 -27 -10 -47 -32 -72 -38 -44 -63 -52
-95 -31 -25 16 -134 157 -134 173 0 13 42 50 70 61 39 15 -6 13 -50 -3z"/>
<path d="M10453 6328 c-72 -16 -47 -27 28 -12 40 7 74 16 77 19 8 8 -58 4
-105 -7z"/>
<path d="M12630 6199 c-97 -72 -233 -215 -390 -409 l-45 -55 74 68 c138 129
242 193 418 257 67 24 119 69 110 94 -9 22 -34 20 -95 -9 -90 -42 -108 -28
-46 36 53 55 37 65 -26 18z"/>
<path d="M8140 6169 l-24 -21 29 4 c19 2 31 10 33 21 4 22 -7 21 -38 -4z"/>
<path d="M4841 6154 c-22 -28 -28 -50 -11 -39 11 7 43 65 36 65 -3 0 -14 -12
-25 -26z"/>
<path d="M9001 6115 c-1 -30 19 -95 29 -95 7 0 2 24 -23 100 -4 10 -6 9 -6 -5z"/>
<path d="M8004 5900 c24 -105 26 -123 15 -136 -10 -12 -9 -13 5 -8 9 3 16 14
16 23 0 25 -27 131 -35 139 -3 4 -4 -4 -1 -18z"/>
<path d="M8211 5898 c-1 -32 8 -58 20 -58 13 0 10 20 -6 55 l-13 30 -1 -27z"/>
<path d="M10550 5819 c0 -19 4 -20 48 -13 26 3 51 9 56 12 16 9 -19 22 -61 22
-37 0 -43 -3 -43 -21z"/>
<path d="M7928 5723 c7 -3 16 -2 19 1 4 3 -2 6 -13 5 -11 0 -14 -3 -6 -6z"/>
<path d="M7801 5704 c7 -8 22 -9 52 -3 66 15 66 17 0 16 -44 -2 -58 -5 -52
-13z"/>
<path d="M9260 5617 c0 -14 5 -29 10 -32 7 -4 8 3 4 22 -9 38 -14 42 -14 10z"/>
<path d="M4570 5589 c0 -24 38 -253 46 -282 5 -17 8 -16 34 8 16 15 35 25 42
22 7 -3 192 -318 412 -700 296 -517 402 -694 413 -690 8 3 13 13 10 22 -2 9
-180 323 -396 698 -215 374 -391 688 -391 696 0 10 13 18 35 23 19 3 35 10 35
15 0 4 -54 53 -120 109 -99 84 -120 97 -120 79z"/>
<path d="M8713 5515 c8 -56 23 -78 37 -55 20 31 12 62 -24 90 -19 14 -19 13
-13 -35z"/>
<path d="M8552 5485 c-1 -39 15 -101 22 -85 3 8 0 35 -8 60 -8 25 -14 36 -14
25z"/>
<path d="M8320 5404 c0 -5 7 -20 16 -32 18 -25 61 -29 144 -11 75 16 54 21
-28 7 l-72 -12 -30 29 c-16 16 -30 24 -30 19z"/>
<path d="M10441 5303 c-1 -12 4 -25 9 -28 12 -7 12 2 0 30 -8 19 -9 19 -9 -2z"/>
<path d="M8061 4469 c-349 -263 -640 -479 -648 -479 -8 0 -21 16 -29 36 -9 20
-19 33 -24 28 -27 -29 -168 -260 -160 -262 9 -3 288 76 299 85 3 2 -11 16 -30
32 -34 30 -34 30 -14 49 11 11 299 230 640 487 356 268 620 474 620 483 0 8
-4 17 -10 18 -5 2 -295 -213 -644 -477z"/>
<path d="M6165 3875 c-51 -8 -130 -11 -180 -8 -79 5 -98 3 -139 -16 -99 -43
-184 -110 -426 -331 -70 -63 -184 -166 -256 -228 -148 -130 -251 -242 -289
-319 -53 -103 -43 -230 31 -378 71 -145 180 -272 527 -615 356 -352 446 -457
535 -628 69 -132 101 -218 167 -438 51 -174 283 -884 291 -893 2 -2 7 -1 11 3
4 4 1 21 -6 39 -41 99 -110 321 -167 534 -141 531 -208 703 -368 938 -64 95
-253 291 -537 558 -173 162 -285 291 -371 428 -81 128 -101 185 -102 289 0 77
3 91 31 146 91 175 447 519 763 736 186 128 262 159 340 138 56 -15 94 -53 86
-86 -5 -20 -3 -24 16 -24 13 0 37 -9 55 -20 83 -50 92 -190 20 -297 -24 -35
-49 -56 -102 -83 -90 -47 -112 -86 -125 -222 -11 -118 -22 -143 -71 -162 -78
-32 -147 -29 -254 10 -16 6 -18 5 -7 -7 18 -20 15 -39 -8 -39 -12 0 -43 12
-71 26 -28 14 -52 24 -54 22 -1 -2 -7 -13 -13 -25 -10 -17 -8 -22 6 -29 9 -4
103 -10 209 -13 131 -4 196 -10 204 -18 20 -21 -10 -92 -59 -140 -24 -23 -66
-50 -95 -61 -73 -28 -198 -45 -271 -37 -56 5 -59 5 -42 -9 63 -50 185 -33 429
60 35 14 52 16 65 8 23 -14 54 -78 47 -96 -3 -8 -45 -27 -93 -43 -99 -33 -84
-46 30 -25 54 11 70 11 83 0 19 -16 19 -33 -1 -73 -27 -54 -1 -18 103 138 182
274 226 364 294 597 66 230 107 305 187 340 85 38 202 9 285 -70 20 -20 37
-42 37 -49 0 -8 15 -36 34 -63 20 -30 40 -74 46 -107 15 -71 7 -336 -14 -482
-18 -125 -12 -169 40 -284 32 -70 38 -96 48 -206 10 -117 11 -121 14 -56 2 39
7 74 11 78 15 15 136 -129 178 -211 64 -124 77 -201 69 -406 -3 -94 -9 -219
-12 -277 -9 -143 9 -226 97 -446 38 -97 72 -179 74 -181 7 -8 85 49 85 62 0 6
-34 79 -76 163 -98 194 -102 229 -54 433 61 254 49 335 -92 635 -205 437 -230
545 -167 729 29 84 31 97 25 176 -12 162 -61 346 -107 405 -12 14 -53 48 -93
74 -68 46 -104 81 -209 205 -59 68 -101 91 -187 101 -90 10 -123 26 -184 90
l-53 55 -64 -1 c-35 -1 -104 -8 -154 -14z m220 -37 c7 -6 4 -14 -8 -22 -16
-13 -16 -15 7 -30 14 -9 31 -16 37 -16 23 0 49 -33 49 -61 0 -15 -12 -42 -27
-60 -27 -31 -100 -72 -114 -63 -11 7 -142 245 -137 249 24 25 169 27 193 3z"/>
<path d="M6319 2574 c-5 -15 -8 -29 -5 -31 2 -2 8 10 14 26 13 38 5 41 -9 5z"/>
<path d="M6338 2390 c-26 -71 -30 -97 -14 -103 11 -5 18 8 26 49 6 29 10 64 8
76 -3 18 -7 14 -20 -22z"/>
<path d="M6747 2136 c-11 -75 -9 -108 6 -104 15 6 20 61 9 113 l-8 40 -7 -49z"/>
<path d="M6367 2040 c-4 -19 -1 -45 8 -66 27 -66 48 -26 24 47 -17 49 -25 54
-32 19z"/>
<path d="M7275 1010 c3 -19 8 -61 12 -93 5 -47 8 -55 20 -45 8 6 11 18 7 27
-3 9 -15 45 -25 81 -10 36 -17 49 -14 30z"/>
<path d="M7320 791 c-15 -30 -12 -48 10 -54 22 -6 26 -36 10 -68 -12 -21 2
-26 17 -6 12 14 -5 147 -18 147 -5 0 -13 -9 -19 -19z"/>
</g>
</svg>
