<?xml version="1.0" encoding="UTF-8" standalone="no"?>
<!-- Created with Inkscape (http://www.inkscape.org/) -->

<svg
   xmlns:dc="http://purl.org/dc/elements/1.1/"
   xmlns:cc="http://creativecommons.org/ns#"
   xmlns:rdf="http://www.w3.org/1999/02/22-rdf-syntax-ns#"
   xmlns:svg="http://www.w3.org/2000/svg"
   xmlns="http://www.w3.org/2000/svg"
   xmlns:sodipodi="http://sodipodi.sourceforge.net/DTD/sodipodi-0.dtd"
   xmlns:inkscape="http://www.inkscape.org/namespaces/inkscape"
   width="800"
   height="800"
   viewBox="0 0 211.66666 211.66668"
   version="1.1"
   id="svg4614"
   sodipodi:docname="paper.svg"
   inkscape:version="0.92.2 (5c3e80d, 2017-08-06)">
  <defs
     id="defs4608" />
  <sodipodi:namedview
     id="base"
     pagecolor="#ffffff"
     bordercolor="#666666"
     borderopacity="1.0"
     inkscape:pageopacity="0.0"
     inkscape:pageshadow="2"
     inkscape:zoom="0.7"
     inkscape:cx="130.01478"
     inkscape:cy="491.2334"
     inkscape:document-units="mm"
     inkscape:current-layer="layer1"
     showgrid="false"
     inkscape:window-width="1810"
     inkscape:window-height="1057"
     inkscape:window-x="-8"
     inkscape:window-y="-8"
     inkscape:window-maximized="1"
     inkscape:pagecheckerboard="false"
     units="px" />
  <metadata
     id="metadata4611">
    <rdf:RDF>
      <cc:Work
         rdf:about="">
        <dc:format>image/svg+xml</dc:format>
        <dc:type
           rdf:resource="http://purl.org/dc/dcmitype/StillImage" />
        <dc:title></dc:title>
      </cc:Work>
    </rdf:RDF>
  </metadata>
  <g
     inkscape:label="Ebene 1"
     inkscape:groupmode="layer"
     id="layer1"
     transform="translate(0,-85.333317)">
    <path
       style="fill:#000000;stroke:none;stroke-width:0.03527778"
       d="m 162.86705,144.90814 c -3.88056,0.38806 -10.65389,1.34056 -24.16528,3.35139 -1.27,0.17639 -5.29167,0.74084 -8.99582,1.23473 -16.61583,2.25777 -23.88306,3.73944 -28.82195,6.0325 -1.905003,0.84666 -3.633613,1.55222 -3.845283,1.55222 -0.24694,0 -0.35277,0.0706 -0.24694,0.17639 0.10583,0.10583 2.68111,-0.35278 5.715003,-1.05834 3.06917,-0.67027 9.70139,-1.94027 14.78139,-2.82222 5.08,-0.84667 12.91167,-2.25778 17.35666,-3.13972 21.09611,-4.1275 23.495,-4.445 35.10138,-4.79778 5.15056,-0.14111 9.41917,-0.3175 9.525,-0.35278 0.10584,-0.0353 -0.14111,-0.17639 -0.52916,-0.35277 -1.05834,-0.45862 -10.61861,-0.35278 -15.875,0.17638 z"
       id="path8"
       inkscape:connector-curvature="0" />
    <path
       style="fill:#000000;stroke:none;stroke-width:0.03527778"
       d="m 108.36289,159.68953 c 0,0.67028 0.81139,0.91723 2.01083,0.59973 l 0.98778,-0.28223 -0.98778,-0.42333 c -1.34055,-0.52917 -2.01083,-0.49389 -2.01083,0.10583 z"
       id="path18"
       inkscape:connector-curvature="0" />
    <path
       style="fill:#000000;stroke:none;stroke-width:0.03527778"
       d="m 68.675387,164.9812 c -11.35944,3.13972 -18.48555,5.53861 -23.88305,7.97278 l -1.69334,0.74083 0.70556,1.37583 c 0.88194,1.72861 1.05833,1.76389 0.81139,0.24695 -0.10584,-0.74084 0,-1.30528 0.3175,-1.55222 0.42333,-0.35278 15.20472,-5.29167 27.19916,-9.10167 2.8575,-0.91722 5.18584,-1.69333 5.18584,-1.79917 0,-0.24694 -0.28223,-0.17639 -8.64306,2.11667 z"
       id="path20"
       inkscape:connector-curvature="0" />
    <path
       style="fill:#000000;stroke:none;stroke-width:0.03527778"
       d="m 81.481217,166.11009 c -1.34055,0.70555 -1.27,1.34055 0.0706,0.67028 0.59973,-0.3175 1.05834,-0.70556 1.05834,-0.88195 0,-0.42333 0.0353,-0.42333 -1.12889,0.21167 z"
       id="path22"
       inkscape:connector-curvature="0" />
    <path
       style="fill:#000000;stroke:none;stroke-width:0.03527778"
       d="m 73.190947,167.23898 c -1.02306,0.14111 -1.02306,0.21166 0.0706,1.30527 1.05833,1.05834 1.5875,1.12889 1.5875,0.24695 0,-0.98778 -0.77612,-1.69333 -1.65806,-1.55222 z"
       id="path24"
       inkscape:connector-curvature="0" />
    <path
       style="fill:#000000;stroke:none;stroke-width:0.03527778"
       d="m 88.254557,171.0137 c -1.05834,0.28222 -8.04334,1.86972 -15.52222,3.52778 -22.40139,5.00944 -25.78806,5.82083 -28.96306,6.91444 -3.84528,1.30528 -4.69194,1.30528 -5.99722,0 -1.19945,-1.23472 -1.37584,-2.50472 -0.3175,-2.50472 0.56444,0 0.70555,-0.24695 0.70555,-1.23472 0,-1.41111 -0.0705,-1.44639 -1.44639,-0.635 -1.34055,0.81139 -1.55222,1.69333 -1.02305,4.55083 0.24694,1.30528 0.3175,2.43417 0.14111,2.61056 -0.17639,0.17638 -2.78694,1.05833 -5.78556,1.94027 -10.30111,3.10445 -13.40555,5.36223 -13.40555,9.66611 0,0.77612 0.24694,2.15195 0.52917,3.03389 0.59972,1.69334 0.49388,2.29306 -0.38806,2.29306 -0.28222,0 -1.44639,0.45861 -2.61056,1.05833 -1.76388,0.88195 -2.15194,1.23472 -2.46944,2.36361 -0.67028,2.43417 -0.77611,4.86834 -0.35278,6.985 1.09361,5.32695 2.57528,5.85611 12.41778,4.37445 2.68111,-0.38806 5.32694,-0.67028 5.85611,-0.59973 0.91722,0.10584 0.9525,0.10584 0.9525,3.10445 0,3.4925 0.70556,5.36222 2.8575,7.72584 2.11667,2.39888 2.43417,2.46944 8.255,2.11666 8.255,-0.49389 21.41361,-2.39889 36.30083,-5.25639 2.01084,-0.38806 3.77473,-0.59972 3.91584,-0.52917 0.17639,0.10584 -0.0353,1.02306 -0.42334,2.01084 -1.02305,2.68111 -0.9525,6.84389 0.14112,9.06639 0.74083,1.44639 0.98777,1.65805 2.57527,2.08139 2.64584,0.70555 9.10167,0.91722 13.08806,0.45861 3.033893,-0.35278 9.525003,-1.55222 20.778613,-3.81 2.61056,-0.52917 5.00945,-0.635 13.22917,-0.67028 8.21971,0 10.54804,-0.10583 12.8411,-0.635 9.06639,-2.01083 14.99305,-5.99722 22.11916,-14.78139 l 2.92806,-3.59833 -3.70417,3.73944 c -7.44361,7.54945 -14.00527,11.28889 -22.43666,12.80584 -3.81,0.70555 -5.64445,0.88194 -13.33499,1.27 -8.67833,0.45861 -11.07722,0.77611 -20.6375,2.64583 -10.548063,2.04611 -12.841123,2.36361 -17.638893,2.2225 -3.31611,-0.0706 -4.05695,-0.21167 -4.05695,-0.635 0,-0.35278 1.09361,-0.84667 3.63361,-1.5875 l 3.66889,-1.02306 -0.21166,-1.69333 c -0.14111,-0.9525 -0.56445,-2.75167 -0.9525,-4.02167 l -0.74084,-2.36361 -1.79916,0.21167 c -1.02306,0.10583 -2.92806,0.67028 -4.30389,1.23472 l -2.46945,1.02306 0.0706,3.73944 c 0.0705,2.96333 -0.0353,3.77472 -0.38805,3.77472 -0.70556,0 -1.62278,-2.57527 -1.62278,-4.445 0,-2.04611 0.635,-3.24555 2.64583,-5.00944 3.10445,-2.71639 9.03111,-4.58611 22.577783,-7.12611 12.77055,-2.39889 17.4625,-3.66889 21.41361,-5.715 1.94028,-1.02306 3.59832,-2.39889 2.8575,-2.39889 -0.21167,0 -1.23472,0.38805 -2.25778,0.84666 -8.04333,3.52778 -22.40139,6.84389 -49.706393,11.50056 -9.03111,1.51694 -17.145,2.92806 -17.99166,3.13972 -0.88195,0.17639 -4.05695,0.77612 -7.05556,1.30528 -6.985,1.19945 -15.31055,1.41111 -18.20333,0.38806 -2.92806,-1.02306 -4.37444,-2.96334 -4.37444,-5.85612 0,-2.96333 0.81138,-3.95111 1.26999,-1.55222 0.35278,2.04611 0.74084,2.50472 0.74084,0.91722 0,-2.78694 1.97555,-4.69194 4.79778,-4.69194 1.30527,0 1.72861,0.17639 2.32833,0.91722 l 0.74083,0.9525 -0.21166,-1.62278 c -0.21167,-1.48166 -0.14111,-1.65805 0.59972,-1.97555 0.45861,-0.17639 4.51555,-0.98778 8.96055,-1.79917 16.61584,-2.99861 44.20306,-8.67833 44.7675,-9.2075 1.05834,-0.9525 -8.60777,0.3175 -18.30916,2.43417 -4.445,0.98778 -10.01889,2.11666 -12.34723,2.54 -2.32833,0.42333 -9.03111,1.69333 -14.92249,2.8575 -17.92112,3.52778 -25.36473,4.55083 -32.73778,4.55083 -3.98639,0 -4.37445,-0.21167 -5.29167,-2.71639 -0.88194,-2.54 -0.45861,-7.44361 0.67028,-7.09083 0.21167,0.10583 0.49389,0.77611 0.635,1.55222 l 0.17639,1.37583 0.42333,-1.44638 c 0.70556,-2.46945 3.13972,-4.02167 6.27945,-4.02167 1.41111,0 1.5875,-0.0706 1.19944,-0.52917 -0.24694,-0.3175 -0.38806,-0.635 -0.28222,-0.74083 0.10583,-0.10583 2.01083,-0.56445 4.19805,-1.02306 2.2225,-0.45861 8.00806,-1.86972 12.84111,-3.13972 10.65389,-2.82222 18.34445,-4.33916 19.05,-3.73944 0.35278,0.28222 0.52917,0.28222 0.77612,-0.10584 0.38805,-0.70555 4.33916,-1.905 15.87499,-4.79777 10.12473,-2.57528 17.95639,-4.86834 17.63889,-5.22111 -0.35277,-0.3175 -6.77333,1.16416 -26.45833,6.10305 -10.40694,2.61056 -21.44889,5.29167 -24.51805,5.96195 -10.33639,2.22249 -21.76639,4.02166 -22.33084,3.45722 -0.14111,-0.14111 -0.45861,-1.27 -0.70555,-2.50472 -0.42334,-1.94028 -0.38806,-2.25778 0.14111,-2.78695 0.52916,-0.52917 0.635,-0.45861 1.27,1.05833 0.81139,1.905 1.30528,2.18723 3.13972,1.83445 l 1.30528,-0.24695 -1.65806,-0.49388 c -2.2225,-0.67028 -2.61055,-1.41112 -1.51694,-3.03389 2.89278,-4.23334 13.93472,-8.07861 41.09861,-14.21695 13.61722,-3.06916 19.75555,-4.65666 25.22361,-6.42055 4.97417,-1.5875 5.57389,-2.04611 1.23472,-0.98778 z m 4.37444,54.57472 c 0.81139,1.27 1.72861,5.25639 1.30528,5.67973 -0.45861,0.45861 -6.35,2.36361 -7.33778,2.36361 -1.05833,0 -1.83444,-1.27 -2.08139,-3.38667 -0.3175,-2.71639 0.0706,-3.28083 3.06917,-4.40972 3.28083,-1.19945 4.37444,-1.27 5.04472,-0.24695 z"
       id="path26"
       inkscape:connector-curvature="0" />
    <path
       style="fill:#000000;stroke:none;stroke-width:0.03527778"
       d="m 44.474837,177.50481 c -0.3175,0.3175 -0.84667,0.77611 -1.23473,1.02306 -0.59972,0.38805 -0.52916,0.42333 0.56445,0.21166 1.51694,-0.24694 1.94028,-0.635 1.55222,-1.27 -0.28222,-0.42333 -0.38805,-0.42333 -0.88194,0.0353 z"
       id="path32"
       inkscape:connector-curvature="0" />
    <path
       style="fill:#000000;stroke:none;stroke-width:0.03527778"
       d="m 59.185667,183.43148 c 0.3175,1.30527 1.12889,3.28083 1.34055,3.28083 0.10584,0 0.10584,-0.24694 -0.0353,-0.56444 -0.14111,-0.35278 0,-0.70556 0.35278,-0.91723 0.635,-0.3175 0.49389,-1.12889 -0.38805,-2.15194 -0.84667,-0.9525 -1.55223,-0.77611 -1.27,0.35278 z"
       id="path38"
       inkscape:connector-curvature="0" />
    <path
       style="fill:#000000;stroke:none;stroke-width:0.03527778"
       d="m 109.52706,189.25231 c -2.54,0.56444 -1.65806,0.9525 0.98777,0.42333 1.41112,-0.24694 2.61056,-0.56444 2.7164,-0.67027 0.28222,-0.28223 -2.04611,-0.14112 -3.70417,0.24694 z"
       id="path44"
       inkscape:connector-curvature="0" />
    <path
       style="fill:#000000;stroke:none;stroke-width:0.03527778"
       d="m 186.32677,193.80314 c -3.42194,2.54 -8.21972,7.58472 -13.75833,14.42861 l -1.5875,1.94028 2.61055,-2.39889 c 4.86834,-4.55083 8.53722,-6.80861 14.74611,-9.06639 2.36361,-0.84666 4.19806,-2.43416 3.88056,-3.31611 -0.3175,-0.77611 -1.19945,-0.70555 -3.35139,0.3175 -3.175,1.48167 -3.81,0.98778 -1.62278,-1.27 1.86972,-1.94027 1.30528,-2.29305 -0.91722,-0.635 z"
       id="path46"
       inkscape:connector-curvature="0" />
    <path
       style="fill:#000000;stroke:none;stroke-width:0.03527778"
       d="m 27.929557,194.86148 -0.84667,0.74083 1.02306,-0.14111 c 0.67027,-0.0706 1.09361,-0.35278 1.16416,-0.74083 0.14111,-0.77612 -0.24694,-0.74084 -1.34055,0.14111 z"
       id="path48"
       inkscape:connector-curvature="0" />
    <path
       style="fill:#000000;stroke:none;stroke-width:0.03527778"
       d="m 58.303727,196.76648 c -0.0353,1.05833 0.67027,3.35138 1.02305,3.35138 0.24695,0 0.0706,-0.84666 -0.81139,-3.52777 -0.14111,-0.35278 -0.21166,-0.3175 -0.21166,0.17639 z"
       id="path52"
       inkscape:connector-curvature="0" />
    <path
       style="fill:#000000;stroke:none;stroke-width:0.03527778"
       d="m 23.131777,204.3512 c 0.84667,3.70416 0.91722,4.33916 0.52917,4.79778 -0.35278,0.42333 -0.3175,0.45861 0.17639,0.28222 0.3175,-0.10584 0.56444,-0.49389 0.56444,-0.81139 0,-0.88195 -0.9525,-4.62139 -1.23472,-4.90361 -0.10584,-0.14111 -0.14111,0.14111 -0.0353,0.635 z"
       id="path54"
       inkscape:connector-curvature="0" />
    <path
       style="fill:#000000;stroke:none;stroke-width:0.03527778"
       d="m 30.434277,204.42175 c -0.0353,1.12889 0.28222,2.04611 0.70556,2.04611 0.45861,0 0.35277,-0.70555 -0.21167,-1.94027 l -0.45861,-1.05834 z"
       id="path56"
       inkscape:connector-curvature="0" />
    <path
       style="fill:#000000;stroke:none;stroke-width:0.03527778"
       d="m 112.949,207.2087 c 0,0.67028 0.14112,0.70555 1.69334,0.45861 0.91722,-0.10583 1.79916,-0.3175 1.97555,-0.42333 0.56445,-0.3175 -0.67027,-0.77612 -2.15194,-0.77612 -1.30528,0 -1.51695,0.10584 -1.51695,0.74084 z"
       id="path58"
       inkscape:connector-curvature="0" />
    <path
       style="fill:#000000;stroke:none;stroke-width:0.03527778"
       d="m 20.450667,210.59536 c 0.24694,0.10584 0.56444,0.0706 0.67028,-0.0353 0.14111,-0.10583 -0.0706,-0.21166 -0.45861,-0.17639 -0.38806,0 -0.49389,0.10584 -0.21167,0.21167 z"
       id="path60"
       inkscape:connector-curvature="0" />
    <path
       style="fill:#000000;stroke:none;stroke-width:0.03527778"
       d="m 15.970387,211.26564 c 0.24695,0.28222 0.77611,0.3175 1.83445,0.10584 2.32833,-0.52917 2.32833,-0.59973 0,-0.56445 -1.55223,0.0706 -2.04612,0.17639 -1.83445,0.45861 z"
       id="path62"
       inkscape:connector-curvature="0" />
    <path
       style="fill:#000000;stroke:none;stroke-width:0.03527778"
       d="m 67.440667,214.33481 c 0,0.49389 0.17639,1.02305 0.35278,1.12889 0.24694,0.14111 0.28222,-0.10584 0.14111,-0.77611 -0.3175,-1.34056 -0.49389,-1.48167 -0.49389,-0.35278 z"
       id="path64"
       inkscape:connector-curvature="0" />
    <path
       style="fill:#000000;stroke:none;stroke-width:0.03527778"
       d="m 48.143727,217.93314 c 0.28222,1.97556 0.81138,2.75167 1.30527,1.94028 0.70556,-1.09361 0.42334,-2.18722 -0.84666,-3.175 -0.67028,-0.49389 -0.67028,-0.45861 -0.45861,1.23472 z"
       id="path68"
       inkscape:connector-curvature="0" />
    <path
       style="fill:#000000;stroke:none;stroke-width:0.03527778"
       d="m 42.463997,218.99148 c -0.0353,1.37583 0.52917,3.56305 0.77611,2.99861 0.10584,-0.28223 0,-1.23473 -0.28222,-2.11667 -0.28222,-0.88194 -0.49389,-1.27 -0.49389,-0.88194 z"
       id="path70"
       inkscape:connector-curvature="0" />
    <path
       style="fill:#000000;stroke:none;stroke-width:0.03527778"
       d="m 34.279557,221.84898 c 0,0.17638 0.24694,0.70555 0.56444,1.12888 0.635,0.88195 2.15195,1.02306 5.08,0.38806 2.64584,-0.56444 1.905,-0.74083 -0.98777,-0.24694 l -2.54001,0.42333 -1.05833,-1.02306 c -0.56444,-0.56444 -1.05833,-0.84666 -1.05833,-0.67027 z"
       id="path72"
       inkscape:connector-curvature="0" />
    <path
       style="fill:#000000;stroke:none;stroke-width:0.03527778"
       d="m 109.10372,225.41203 c -0.0353,0.42334 0.14111,0.88195 0.3175,0.98778 0.42334,0.24695 0.42334,-0.0706 0,-1.05833 -0.28222,-0.67028 -0.3175,-0.67028 -0.3175,0.0705 z"
       id="path74"
       inkscape:connector-curvature="0" />
  </g>
</svg>
