<?xml version="1.0" encoding="UTF-8" standalone="no"?>
<!-- Created with Inkscape (http://www.inkscape.org/) -->

<svg
   xmlns:dc="http://purl.org/dc/elements/1.1/"
   xmlns:cc="http://creativecommons.org/ns#"
   xmlns:rdf="http://www.w3.org/1999/02/22-rdf-syntax-ns#"
   xmlns:svg="http://www.w3.org/2000/svg"
   xmlns="http://www.w3.org/2000/svg"
   xmlns:sodipodi="http://sodipodi.sourceforge.net/DTD/sodipodi-0.dtd"
   xmlns:inkscape="http://www.inkscape.org/namespaces/inkscape"
   width="800"
   height="800"
   viewBox="0 0 211.66667 211.66667"
   version="1.1"
   id="svg4614"
   sodipodi:docname="rock.svg"
   inkscape:version="0.92.2 (5c3e80d, 2017-08-06)">
  <defs
     id="defs4608" />
  <sodipodi:namedview
     id="base"
     pagecolor="#ffffff"
     bordercolor="#666666"
     borderopacity="1.0"
     inkscape:pageopacity="0.0"
     inkscape:pageshadow="2"
     inkscape:zoom="0.35"
     inkscape:cx="31.228474"
     inkscape:cy="366.84589"
     inkscape:document-units="mm"
     inkscape:current-layer="layer1"
     showgrid="false"
     inkscape:window-width="1810"
     inkscape:window-height="1057"
     inkscape:window-x="-8"
     inkscape:window-y="-8"
     inkscape:window-maximized="1"
     units="px" />
  <metadata
     id="metadata4611">
    <rdf:RDF>
      <cc:Work
         rdf:about="">
        <dc:format>image/svg+xml</dc:format>
        <dc:type
           rdf:resource="http://purl.org/dc/dcmitype/StillImage" />
        <dc:title></dc:title>
      </cc:Work>
    </rdf:RDF>
  </metadata>
  <g
     inkscape:label="Ebene 1"
     inkscape:groupmode="layer"
     id="layer1"
     transform="translate(0,-85.333349)">
    <path
       style="fill:#000000;stroke:none;stroke-width:0.03527778"
       d="m 92.652503,124.84544 c -1.799167,0.28222 -4.58611,0.38805 -6.35,0.28222 -2.786944,-0.17639 -3.457221,-0.10583 -4.90361,0.56444 -3.4925,1.51695 -6.491111,3.88056 -15.028333,11.67695 -2.469445,2.2225 -6.491111,5.85611 -9.031111,8.04333 -5.221111,4.58611 -8.854723,8.53722 -10.195278,11.25361 -1.869722,3.63362 -1.516944,8.11389 1.093611,13.335 2.504722,5.11528 6.35,9.59556 18.591389,21.69584 12.558888,12.41778 15.733888,16.12194 18.873611,22.15444 2.434167,4.65667 3.563054,7.69056 5.891388,15.45166 1.799166,6.13834 9.98361,31.18556 10.26583,31.50306 0.0706,0.0705 0.24695,0.0353 0.38806,-0.10584 0.14111,-0.14111 0.0353,-0.74083 -0.21167,-1.37583 -1.44639,-3.4925 -3.880554,-11.32417 -5.891387,-18.83833 -4.974167,-18.7325 -7.337777,-24.80027 -12.982221,-33.09055 -2.257779,-3.35139 -8.925279,-10.26583 -18.944167,-19.685 -6.103055,-5.715 -10.054166,-10.26583 -13.088055,-15.09889 -2.8575,-4.51556 -3.563056,-6.52639 -3.598334,-10.19528 0,-2.71639 0.105834,-3.21028 1.093612,-5.15055 3.210277,-6.17362 15.769166,-18.30917 26.916944,-25.96445 6.561667,-4.51556 9.242777,-5.60917 11.994444,-4.86833 1.975556,0.52916 3.31611,1.86972 3.03389,3.03389 -0.17639,0.70555 -0.105834,0.84666 0.564443,0.84666 0.458611,0 1.305277,0.3175 1.940277,0.70556 2.928057,1.76389 3.245557,6.70278 0.705557,10.4775 -0.846667,1.23472 -1.728611,1.97555 -3.598334,2.92805 -3.175,1.65806 -3.95111,3.03389 -4.409723,7.83167 -0.388054,4.16278 -0.77611,5.04472 -2.50472,5.715 -2.751667,1.12889 -5.185834,1.02306 -8.960557,-0.35278 -0.564443,-0.21166 -0.635,-0.17638 -0.246943,0.24695 0.635,0.70555 0.529166,1.37583 -0.282223,1.37583 -0.423334,0 -1.516945,-0.42333 -2.504722,-0.91722 -0.987778,-0.49389 -1.834445,-0.84667 -1.905,-0.77611 -0.03528,0.0705 -0.246945,0.45861 -0.458611,0.88194 -0.352778,0.59973 -0.282223,0.77611 0.211666,1.02306 0.3175,0.14111 3.63361,0.35278 7.373056,0.45861 4.621388,0.14111 6.914444,0.35278 7.196667,0.635 0.705554,0.74083 -0.352779,3.24556 -2.08139,4.93889 -0.846666,0.81139 -2.328333,1.76389 -3.351389,2.15194 -2.575277,0.98778 -6.984999,1.5875 -9.560277,1.30528 -1.975556,-0.17639 -2.081389,-0.17639 -1.481667,0.3175 2.2225,1.76389 6.52639,1.16417 15.134167,-2.11667 1.234723,-0.49388 1.834443,-0.56444 2.293056,-0.28222 0.811387,0.49389 1.905,2.75167 1.658054,3.38667 -0.105833,0.28222 -1.5875,0.9525 -3.280833,1.51694 -3.4925,1.16417 -2.963334,1.62278 1.058333,0.88195 1.905,-0.38806 2.469446,-0.38806 2.928056,0 0.670277,0.56444 0.670277,1.16416 -0.03528,2.57528 -0.9525,1.905 -0.03528,0.635 3.633611,-4.86834 6.420553,-9.66611 7.972777,-12.84111 10.37167,-21.06083 2.32833,-8.11389 3.77472,-10.75973 6.59694,-11.99445 2.99861,-1.34055 7.12611,-0.3175 10.05417,2.46945 0.70555,0.70555 1.30527,1.48166 1.30527,1.72861 0,0.28222 0.52917,1.27 1.19945,2.2225 0.70555,1.05833 1.41111,2.61055 1.62278,3.77472 0.52916,2.50472 0.24694,11.85334 -0.49389,17.00389 -0.635,4.40972 -0.42334,5.96195 1.41111,10.01889 1.12889,2.46944 1.34055,3.38667 1.69333,7.26722 0.35278,4.1275 0.38806,4.26861 0.49389,1.97556 0.0706,-1.37584 0.24695,-2.61056 0.38806,-2.75167 0.52916,-0.52917 4.79777,4.55083 6.27944,7.44361 2.25778,4.37445 2.71639,7.09084 2.43417,14.32278 -0.10584,3.31611 -0.3175,7.72583 -0.42334,9.77194 -0.3175,5.04473 0.3175,7.97278 3.42195,15.73389 1.34055,3.42194 2.54,6.31472 2.61055,6.38528 0.24695,0.28222 2.99861,-1.72862 2.99861,-2.18723 0,-0.21166 -1.19944,-2.78694 -2.68111,-5.75027 -3.45722,-6.84389 -3.59833,-8.07861 -1.905,-15.27528 2.15195,-8.96055 1.72861,-11.81805 -3.24555,-22.40139 -7.23195,-15.41638 -8.11389,-19.22638 -5.89139,-25.7175 1.02305,-2.96333 1.09361,-3.42194 0.88194,-6.20888 -0.42333,-5.71501 -2.15194,-12.20612 -3.77472,-14.28751 -0.42333,-0.49389 -1.86972,-1.69333 -3.28083,-2.61055 -2.39889,-1.62278 -3.66889,-2.8575 -7.37306,-7.23195 -2.08139,-2.39889 -3.56305,-3.21027 -6.59694,-3.56305 -3.175,-0.35278 -4.33917,-0.91722 -6.49111,-3.175 l -1.86972,-1.94028 -2.25778,0.0353 c -1.234721,0.0353 -3.668887,0.28222 -5.432777,0.49389 z m 7.761107,1.30527 c 0.24695,0.21167 0.14112,0.49389 -0.28222,0.77612 -0.564444,0.45861 -0.564444,0.52916 0.24695,1.05833 0.49389,0.3175 1.09361,0.56444 1.30527,0.56444 0.81139,0 1.72862,1.16417 1.72862,2.15195 0,0.52916 -0.42334,1.48166 -0.9525,2.11666 -0.9525,1.09362 -3.527784,2.54 -4.021671,2.2225 -0.388056,-0.24694 -5.009443,-8.64305 -4.833056,-8.78416 0.846667,-0.88195 5.961943,-0.9525 6.808607,-0.10584 z"
       id="path78"
       inkscape:connector-curvature="0" />
    <path
       style="fill:#000000;stroke:none;stroke-width:0.03527778"
       d="m 98.08528,170.74183 c -0.176387,0.52916 -0.282221,1.02305 -0.176387,1.09361 0.07055,0.0705 0.28222,-0.35278 0.493887,-0.91722 0.458613,-1.34056 0.17639,-1.44639 -0.3175,-0.17639 z"
       id="path80"
       inkscape:connector-curvature="0" />
    <path
       style="fill:#000000;stroke:none;stroke-width:0.03527778"
       d="m 98.755559,177.23294 c -0.917223,2.50472 -1.058333,3.42194 -0.493889,3.63361 0.388056,0.17639 0.635,-0.28222 0.917223,-1.72861 0.211666,-1.02306 0.352777,-2.25778 0.28222,-2.68111 -0.105833,-0.635 -0.246943,-0.49389 -0.705554,0.77611 z"
       id="path82"
       inkscape:connector-curvature="0" />
    <path
       style="fill:#000000;stroke:none;stroke-width:0.03527778"
       d="m 113.18417,186.19349 c -0.38806,2.64584 -0.3175,3.81 0.21167,3.66889 0.52916,-0.21166 0.70555,-2.15194 0.3175,-3.98639 l -0.28223,-1.41111 z"
       id="path84"
       inkscape:connector-curvature="0" />
    <path
       style="fill:#000000;stroke:none;stroke-width:0.03527778"
       d="m 99.778613,189.58016 c -0.14111,0.67028 -0.03528,1.5875 0.282227,2.32833 0.9525,2.32834 1.69333,0.91723 0.84666,-1.65805 -0.59972,-1.72861 -0.88194,-1.905 -1.128887,-0.67028 z"
       id="path86"
       inkscape:connector-curvature="0" />
    <path
       style="fill:#000000;stroke:none;stroke-width:0.03527778"
       d="m 131.81084,225.91627 c 0.10583,0.67027 0.28222,2.15194 0.42333,3.28083 0.17639,1.65806 0.28222,1.94028 0.70555,1.5875 0.28223,-0.21167 0.38806,-0.635 0.24695,-0.9525 -0.10583,-0.3175 -0.52917,-1.5875 -0.88195,-2.8575 -0.35277,-1.27 -0.59972,-1.72861 -0.49388,-1.05833 z"
       id="path88"
       inkscape:connector-curvature="0" />
    <path
       style="fill:#000000;stroke:none;stroke-width:0.03527778"
       d="m 133.39834,233.6421 c -0.52917,1.05833 -0.42334,1.69333 0.35277,1.905 0.77611,0.21167 0.91723,1.27 0.35278,2.39889 -0.42333,0.74083 0.0706,0.91722 0.59972,0.21167 0.42334,-0.49389 -0.17639,-5.18584 -0.635,-5.18584 -0.17639,0 -0.45861,0.3175 -0.67027,0.67028 z"
       id="path90"
       inkscape:connector-curvature="0" />
  </g>
</svg>
