<?xml version="1.0" encoding="UTF-8" standalone="no"?>
<!-- Created with Inkscape (http://www.inkscape.org/) -->

<svg
   xmlns:dc="http://purl.org/dc/elements/1.1/"
   xmlns:cc="http://creativecommons.org/ns#"
   xmlns:rdf="http://www.w3.org/1999/02/22-rdf-syntax-ns#"
   xmlns:svg="http://www.w3.org/2000/svg"
   xmlns="http://www.w3.org/2000/svg"
   xmlns:sodipodi="http://sodipodi.sourceforge.net/DTD/sodipodi-0.dtd"
   xmlns:inkscape="http://www.inkscape.org/namespaces/inkscape"
   width="800"
   height="800"
   viewBox="0 0 211.66667 211.66667"
   version="1.1"
   id="svg4614"
   sodipodi:docname="scissors.svg"
   inkscape:version="0.92.2 (5c3e80d, 2017-08-06)">
  <defs
     id="defs4608" />
  <sodipodi:namedview
     id="base"
     pagecolor="#ffffff"
     bordercolor="#666666"
     borderopacity="1.0"
     inkscape:pageopacity="0.0"
     inkscape:pageshadow="2"
     inkscape:zoom="0.49497475"
     inkscape:cx="127.22658"
     inkscape:cy="451.19111"
     inkscape:document-units="mm"
     inkscape:current-layer="layer1"
     showgrid="false"
     inkscape:window-width="1810"
     inkscape:window-height="1057"
     inkscape:window-x="-8"
     inkscape:window-y="-8"
     inkscape:window-maximized="1"
     units="px" />
  <metadata
     id="metadata4611">
    <rdf:RDF>
      <cc:Work
         rdf:about="">
        <dc:format>image/svg+xml</dc:format>
        <dc:type
           rdf:resource="http://purl.org/dc/dcmitype/StillImage" />
        <dc:title></dc:title>
      </cc:Work>
    </rdf:RDF>
  </metadata>
  <g
     inkscape:label="Ebene 1"
     inkscape:groupmode="layer"
     id="layer1"
     transform="translate(0,-85.333349)">
    <path
       style="fill:#000000;stroke:none;stroke-width:0.03527778"
       d="m 9.9060898,136.42144 c -0.3527778,0.38805 -0.5644445,0.77611 -0.4938889,0.84666 0.070556,0.0706 4.8330551,1.44639 10.5480551,3.03389 20.743333,5.75028 36.230277,10.40694 44.308887,13.26444 14.005277,4.97417 16.086667,5.36223 37.182777,6.84389 10.26584,0.74084 18.13278,1.97556 23.60084,3.77473 1.48166,0.45861 5.08,1.905 7.97277,3.175 7.86695,3.45722 13.40556,5.46805 20.6375,7.47888 14.14639,3.98639 20.955,6.52639 31.75,11.88861 8.21972,4.1275 16.75695,9.10167 17.53306,10.26583 1.02305,1.51695 -0.3175,3.81 -3.06917,5.25639 -0.98778,0.52917 -1.97555,0.67028 -4.7625,0.635 l -3.52778,-0.0353 1.76389,0.45861 c 2.46945,0.67028 6.31472,0.635 7.79639,-0.0706 2.2225,-1.05833 3.63361,-3.98638 2.82222,-5.89138 -1.27,-3.10445 -3.70416,-4.7625 -16.68639,-11.46528 -16.12194,-8.29027 -20.84916,-10.23055 -28.85722,-11.71221 -10.61861,-1.97556 -12.065,-2.46945 -20.70805,-6.84389 -4.40972,-2.25778 -9.2075,-4.48028 -10.61861,-4.93889 -4.02167,-1.30528 -8.43139,-1.905 -19.29695,-2.68111 -9.948333,-0.67022 -16.686387,-1.44633 -24.870833,-2.82216 -9.595554,-1.65806 -13.899444,-2.8575 -32.808331,-9.27806 -5.43278,-1.86972 -14.569723,-4.65667 -20.284723,-6.24417 -5.715,-1.55222 -12.347222,-3.45722 -14.710833,-4.23333 -2.36361,-0.77611 -4.339166,-1.41111 -4.444999,-1.41111 -0.07056,0 -0.423334,0.3175 -0.7761112,0.70556 z"
       id="path2"
       inkscape:connector-curvature="0" />
    <path
       style="fill:#000000;stroke:none;stroke-width:0.03527778"
       d="m 8.3891454,169.75893 c 0.070556,0.10584 2.9986106,0.81139 6.4911106,1.5875 7.9375,1.76389 12.064999,3.06917 13.123333,4.1275 0.458611,0.45862 0.987777,0.70556 1.199444,0.59973 0.211667,-0.14111 0.9525,-0.24695 1.622778,-0.21167 1.5875,0.0706 1.411111,-0.0706 -1.481667,-1.16417 -5.891389,-2.2225 -22.0486097,-6.0325 -20.9549986,-4.93889 z"
       id="path4"
       inkscape:connector-curvature="0" />
    <path
       style="fill:#000000;stroke:none;stroke-width:0.03527778"
       d="m 7.2602565,174.02755 c 0,0.45861 3.0338885,1.48166 8.8899995,2.99861 3.880555,0.98777 7.761111,2.2225 9.242777,2.92805 1.375833,0.67028 2.54,1.19945 2.575278,1.16417 0.03528,-0.0353 0.141111,-0.49389 0.282222,-1.05833 0.211667,-0.77612 0.141111,-0.9525 -0.423333,-0.9525 -0.388056,0 -1.5875,-0.3175 -2.681111,-0.67028 -1.093611,-0.38806 -4.727222,-1.34056 -8.078611,-2.15195 -3.351388,-0.81139 -6.949722,-1.69333 -7.9374993,-1.94027 -1.0230556,-0.24695 -1.8697222,-0.38806 -1.8697222,-0.3175 z"
       id="path6"
       inkscape:connector-curvature="0" />
    <path
       style="fill:#000000;stroke:none;stroke-width:0.03527778"
       d="m 100.25248,179.98949 c 0.52916,2.71639 1.905,4.62139 6.6675,9.34861 2.64583,2.61055 5.53861,5.715 6.42055,6.87916 2.08139,2.71639 4.90362,8.67834 6.77334,14.21695 1.97555,5.82083 2.57528,8.78416 2.64583,12.77055 0.0353,3.73945 -0.35278,4.79778 -2.29305,5.96195 l -1.02306,0.635 4.33917,0.24694 c 6.06777,0.3175 9.03111,-0.52917 11.67694,-3.28083 0.88194,-0.91722 0.98778,-1.23472 0.81139,-2.39889 -0.14111,-0.74083 -1.12889,-3.10444 -2.2225,-5.25639 -2.18722,-4.30389 -2.75167,-6.70278 -1.76389,-7.51417 0.88194,-0.74083 5.75028,0.98778 10.16,3.59834 3.63361,2.18722 14.67556,10.08944 26.38778,18.87361 3.95111,2.96333 7.47889,5.32695 9.80722,6.49111 3.24555,1.65806 3.91583,1.86972 6.27944,1.97556 l 2.64584,0.14111 1.48166,-1.55222 c 1.37584,-1.41111 2.36361,-3.52778 2.36361,-5.00945 0,-0.88195 -8.64305,-9.38389 -14.46388,-14.18167 -2.82223,-2.32833 -9.17223,-7.37305 -14.14639,-11.18305 -13.08806,-10.08945 -23.42445,-18.90889 -23.14222,-19.79084 0.0705,-0.21166 0.67027,-0.67027 1.34055,-1.02305 1.76389,-0.9525 4.37445,-0.59972 8.64306,1.12889 3.70416,1.51694 6.87916,2.11666 10.75972,2.15194 3.31611,0 7.09083,1.09361 13.19389,3.73945 6.24416,2.75166 10.33639,4.23333 12.52361,4.51555 l 1.5875,0.21167 -1.41111,-0.59972 c -0.77611,-0.3175 -4.58611,-1.86973 -8.46667,-3.4925 -8.39611,-3.45723 -13.97,-5.22111 -18.52083,-5.78556 -1.83445,-0.21167 -5.36222,-0.88194 -7.83167,-1.44639 -5.60917,-1.30528 -9.80722,-1.83444 -12.10028,-1.55222 -2.15194,0.24694 -5.46805,1.23472 -5.46805,1.5875 0,0.14111 0.59972,0.35278 1.37583,0.45861 1.09361,0.14111 2.25778,0.91722 5.99722,4.05695 2.54,2.15194 8.00806,6.49111 12.13556,9.63083 19.86139,15.24 22.93055,17.74472 29.13944,23.77722 6.13834,5.92667 8.07861,9.10167 7.09084,11.50056 -0.56445,1.34055 -2.01084,2.08139 -4.09223,2.08139 -2.64583,0 -6.10305,-1.94028 -13.61722,-7.65528 -20.03778,-15.16945 -24.62389,-18.30917 -32.20861,-22.15445 -5.22111,-2.64583 -9.98361,-4.26861 -14.74611,-4.97416 -1.97555,-0.28223 -3.77472,-0.70556 -3.98639,-0.9525 -0.21166,-0.24695 -0.67028,-1.23473 -1.02305,-2.18723 -1.44639,-4.09222 -4.69195,-8.89 -8.71361,-12.94694 -3.13973,-3.13972 -3.13973,-3.10444 -0.52917,-5.85611 0.81139,-0.81139 1.27,-1.48167 1.05833,-1.48167 -0.24694,0 -0.52916,0.14111 -0.635,0.35278 -0.10583,0.17639 -0.91722,0.77611 -1.79916,1.27 -1.51695,0.88195 -1.62278,0.91722 -2.25779,0.3175 -0.38805,-0.35278 -0.70555,-1.02305 -0.70555,-1.48167 v -0.84666 l -0.81139,0.9525 c -1.09361,1.27 -1.83444,0.84666 -3.42194,-1.94028 -0.67028,-1.19944 -1.44639,-2.43416 -1.69334,-2.78694 -0.38805,-0.52917 -0.38805,-0.45861 -0.21166,0.45861 z m 26.74055,31.71472 c 2.2225,2.25778 4.69195,6.84389 6.0325,11.25361 l 0.98778,3.10444 -0.81139,0.84667 c -1.69333,1.79917 -4.23333,2.36361 -6.73805,1.55222 -1.83445,-0.635 -2.43417,-1.30528 -2.18722,-2.46944 0.10583,-0.56445 -0.0706,-3.24556 -0.42334,-5.99722 -0.56444,-4.62139 -0.59972,-8.89 -0.0353,-9.80723 0.49389,-0.77611 1.37584,-0.35277 3.175,1.51695 z"
       id="path10"
       inkscape:connector-curvature="0" />
    <path
       style="fill:#000000;stroke:none;stroke-width:0.03527778"
       d="m 52.239423,188.98532 c 3.175,3.35139 7.26722,5.67972 14.56972,8.29028 2.575277,0.91722 4.7625,1.79916 4.868333,1.97555 0.81139,1.34056 -7.831666,0.52917 -20.355276,-1.905 -5.503334,-1.09361 -10.618611,-2.08139 -11.359444,-2.18722 -1.023056,-0.17639 -1.411113,-0.42333 -1.693333,-1.16417 -0.211667,-0.52916 -0.458613,-0.77611 -0.599723,-0.56444 -0.388057,0.59972 -3.527777,0.56444 -7.196667,-0.0353 -3.210278,-0.52917 -8.748889,-0.74083 -8.748889,-0.3175 0,0.10583 0.176389,0.49389 0.352778,0.84667 0.3175,0.56444 0.740834,0.67028 3.104445,0.635 4.691944,-0.0705 6.738055,0.9525 14.216943,6.985 2.786946,2.2225 5.89139,4.62139 6.914446,5.29166 3.069167,2.04612 8.360833,4.48028 18.450277,8.53723 15.275277,6.13833 17.533054,7.26722 23.63611,12.065 5.57389,4.37444 6.103057,4.55083 14.287497,5.29166 2.32834,0.21167 5.11528,0.56445 6.20889,0.77611 1.94028,0.38806 1.97556,0.38806 3.38667,-0.74083 0.77611,-0.635 2.36361,-1.51694 3.4925,-1.97556 l 2.08139,-0.84666 -1.05833,-0.38806 c -3.24556,-1.16416 -6.38528,-3.91583 -9.84251,-8.5725 -3.06916,-4.16277 -4.40972,-6.6675 -5.00944,-9.48972 -0.3175,-1.41111 -0.98778,-3.28083 -1.44639,-4.1275 -1.12889,-1.97555 -4.833056,-5.85611 -9.913054,-10.37167 -2.2225,-1.97555 -4.62139,-4.37444 -5.362223,-5.29166 -1.27,-1.5875 -1.375833,-1.62278 -1.622777,-0.88195 -0.105833,0.45861 -0.423333,0.91723 -0.635,1.05834 -0.246946,0.17639 0.352777,1.02305 1.658054,2.32833 1.658056,1.65806 1.94028,2.15194 1.552223,2.46944 -0.881943,0.74084 -5.609167,1.23473 -9.948333,1.02306 -8.219723,-0.38806 -16.227777,-3.42194 -23.495,-8.89 l -2.257777,-1.69333 z m 37.958887,24.65917 c 1.905,0.98777 4.93889,3.88055 6.385277,6.10305 0.564443,0.9525 1.128889,1.69333 1.234723,1.69333 0.105833,0 0.564443,-0.3175 1.058333,-0.70555 1.09361,-0.84667 2.928057,-0.91722 4.550837,-0.14111 2.61055,1.23472 9.27805,8.32555 8.85472,9.41916 -0.3175,0.84667 -2.75167,1.76389 -4.69194,1.72861 -1.16417,0 -3.21028,-0.49388 -5.50334,-1.27 -2.04611,-0.70555 -4.727223,-1.41111 -5.997223,-1.55222 -1.834444,-0.21166 -2.610554,-0.52916 -3.845277,-1.48166 -3.739444,-2.8575 -4.233333,-3.73945 -2.610554,-4.79778 1.058334,-0.70556 1.09361,-1.30528 0.14111,-3.13972 -1.375833,-2.64584 -3.739443,-4.40973 -5.85611,-4.40973 -1.516946,0 -2.010833,-0.45861 -1.27,-1.16416 1.693334,-1.51695 4.938887,-1.62278 7.549444,-0.28222 z m 10.01889,1.30527 c 0.67028,1.62278 0.67028,2.11667 -0.0353,2.39889 -0.917226,0.35278 -1.552226,-0.45861 -1.552226,-1.905 0,-2.15194 0.776113,-2.39889 1.587496,-0.49389 z m -13.229167,2.25778 c 1.058333,0.74083 2.469443,3.03389 2.469443,3.98639 0,0.28222 -0.564443,0.9525 -1.27,1.48167 l -1.27,0.9525 -0.9525,-0.91723 c -1.375833,-1.34055 -3.386666,-5.22111 -3.104443,-5.99722 0.352777,-0.88194 2.610554,-0.59972 4.1275,0.49389 z"
       id="path12"
       inkscape:connector-curvature="0" />
    <path
       style="fill:#000000;stroke:none;stroke-width:0.03527778"
       d="m 163.25859,188.63254 c 0,0.67028 0.0705,0.9525 0.17639,0.59972 0.0705,-0.3175 0.0705,-0.88194 0,-1.23472 -0.10584,-0.3175 -0.17639,-0.0353 -0.17639,0.635 z"
       id="path14"
       inkscape:connector-curvature="0" />
    <path
       style="fill:#000000;stroke:none;stroke-width:0.03527778"
       d="m 181.63831,193.92421 c -1.05833,1.79916 -1.02306,2.46944 0.0353,2.46944 0.56444,0 0.88194,-0.24694 1.02305,-0.81139 0.0706,-0.42333 0.24695,-1.02305 0.38806,-1.30527 0.14111,-0.3175 0.0353,-0.81139 -0.21167,-1.16417 -0.42333,-0.52917 -0.52916,-0.45861 -1.23472,0.81139 z"
       id="path16"
       inkscape:connector-curvature="0" />
    <path
       style="fill:#000000;stroke:none;stroke-width:0.03527778"
       d="m 110.97692,206.09504 c -0.49389,0.28222 -0.70555,0.49389 -0.49389,0.52917 0.17639,0 0.67028,-0.24695 1.05834,-0.52917 0.84666,-0.635 0.56444,-0.67028 -0.56445,0 z"
       id="path28"
       inkscape:connector-curvature="0" />
    <path
       style="fill:#000000;stroke:none;stroke-width:0.03527778"
       d="m 107.73137,208.0706 c -0.35278,0.17639 -0.63501,0.49389 -0.63501,0.67027 0,0.49389 0.98779,0.0353 1.19945,-0.56444 0.21167,-0.56444 0.21167,-0.56444 -0.56444,-0.10583 z"
       id="path30"
       inkscape:connector-curvature="0" />
    <path
       style="fill:#000000;stroke:none;stroke-width:0.03527778"
       d="m 152.78109,212.8331 c -0.3175,0.49389 -0.49389,0.98777 -0.42333,1.09361 0.10583,0.10583 0.45861,-0.3175 0.77611,-0.91722 0.67027,-1.34056 0.49389,-1.44639 -0.35278,-0.17639 z"
       id="path34"
       inkscape:connector-curvature="0" />
    <path
       style="fill:#000000;stroke:none;stroke-width:0.03527778"
       d="m 116.97415,218.40699 -1.94028,0.42333 1.48166,0.24694 c 0.91723,0.14111 1.97556,0.67028 2.75167,1.34056 0.67028,0.59972 1.23472,0.98778 1.23472,0.84667 0,-0.91723 -0.88194,-3.35139 -1.19944,-3.31612 -0.21167,0.0353 -1.27,0.24695 -2.32833,0.45862 z"
       id="path40"
       inkscape:connector-curvature="0" />
    <path
       style="fill:#000000;stroke:none;stroke-width:0.03527778"
       d="m 112.38803,219.46532 c -1.55222,0.56444 -1.65805,1.16417 -0.59972,3.4925 1.5875,3.45722 3.95111,5.53861 6.35,5.53861 2.39889,0 3.98639,-2.46945 3.13972,-4.83306 -0.35277,-0.98777 -0.35277,-0.98777 -0.38805,0.3175 -0.0353,0.9525 -0.35278,1.65806 -1.12889,2.54 -1.34056,1.55223 -2.2225,1.83445 -3.35139,1.09361 -0.88194,-0.56444 -4.72722,-5.53861 -4.72722,-6.10305 0,-0.45861 1.48167,-1.76389 2.46944,-2.15194 1.37584,-0.52917 -0.21166,-0.45862 -1.76389,0.10583 z"
       id="path42"
       inkscape:connector-curvature="0" />
    <path
       style="fill:#000000;stroke:none;stroke-width:0.03527778"
       d="m 174.15942,229.41365 c -0.77611,0.98778 -0.98778,1.76389 -0.38805,1.37583 0.38805,-0.24694 1.51694,-2.29305 1.27,-2.29305 -0.10584,0 -0.49389,0.42333 -0.88195,0.91722 z"
       id="path50"
       inkscape:connector-curvature="0" />
  </g>
</svg>
